<svg viewBox="0 0 100 39" xmlns="http://www.w3.org/2000/svg"><path fill="#ED3424" d="M0 24.689l8.953 8.027v-7.515h2.908v13.74l-8.953-8.008v7.496H0v-13.74zM20.527 32.55c0-.874-.938-1.595-2.085-1.595-1.244 0-2.258.703-2.334 1.594h4.419zm-7.308 1.081c0-3.055 2.219-5.01 5.223-5.01 2.984 0 4.954 2.163 4.954 4.858 0 0 0 .475-.038.911H16.07c.058 1.139 1.053 1.88 2.564 1.88.995 0 1.684-.305 2.353-.93l1.664 1.574c-1.281 1.31-2.678 1.746-4.151 1.746-3.137 0-5.28-1.954-5.28-4.953v-.076zM23.36 28.866h2.793l1.721 4.592 2.583-4.555 2.583 4.555 1.721-4.592h2.793L33.594 39l-3.137-5.504L27.32 39l-3.96-10.134zM38.878 35.242c.516.608 1.511 1.044 2.64 1.044 1.014 0 1.454-.323 1.454-.778 0-.645-1.32-.702-2.794-1.196-1.339-.455-2.219-1.215-2.219-2.657 0-2.05 1.799-3.074 3.75-3.074 1.722 0 2.831.588 3.558 1.233l-1.358 1.86c-.42-.342-1.148-.702-2.277-.702-.65 0-.956.285-.956.607 0 .646.784.532 2.64 1.177 1.74.589 2.372 1.5 2.372 2.714 0 1.84-1.3 3.226-4.247 3.226-2.161 0-3.482-.816-4.208-1.708l1.645-1.746z"></path><path fill="#fff" d="M52.345 35.774c3.367 0 4.286-1.746 4.286-3.929 0-2.24-.919-3.985-4.305-3.985h-1.913v7.914h1.932zm-4.878-10.571h5.05c4.65 0 7.08 2.809 7.08 6.642 0 3.89-2.412 6.586-7.06 6.586h-5.07V25.203zM61.03 31.42l2.85-2.554v9.565h-2.85v-7.01zM65.588 28.866h2.85v1.31c.44-.969 1.474-1.52 2.794-1.52.268 0 .593.039.746.058v2.657a4.682 4.682 0 0 0-.956-.095c-1.627 0-2.583.93-2.583 2.486v4.669h-2.85v-9.565zM79.912 32.55c0-.874-.938-1.595-2.085-1.595-1.244 0-2.258.703-2.334 1.594h4.419zm-7.308 1.081c0-3.055 2.219-5.01 5.223-5.01 2.984 0 4.954 2.163 4.954 4.858 0 0 0 .475-.038.911h-7.289c.058 1.139 1.053 1.88 2.564 1.88.995 0 1.683-.305 2.353-.93l1.664 1.574c-1.281 1.31-2.678 1.746-4.151 1.746-3.137 0-5.28-1.954-5.28-4.953v-.076zM89.05 28.562c1.434 0 2.792.456 4.017 1.784l-1.799 1.765c-.593-.626-1.224-.987-2.219-.987-1.377 0-2.468 1.044-2.468 2.506 0 1.442 1.091 2.486 2.468 2.486.995 0 1.626-.36 2.22-.987l1.797 1.765c-1.224 1.328-2.582 1.784-4.017 1.784-2.946 0-5.318-2.126-5.318-5.048 0-2.923 2.372-5.068 5.318-5.068zM95.084 31.428H93.82v-2.562h1.263v-3.663h2.773v3.663H100v2.562h-2.143v3.416c0 .93.383 1.272 1.225 1.272.21 0 .478-.038.727-.076v2.505c-.325.076-.861.133-1.397.133-1.415 0-3.329-.418-3.329-3.416v-3.834z"></path><path fill="#ED3424" d="M47.467 23.062l8.972-2.572-8.972-16.361v18.933z"></path><path fill="#F6D807" d="M61.03 19.175l-4.592 1.316 4.592 8.375v-9.69z"></path><path fill="#F05F22" d="M61.032 8.773L47.467 4.13l8.972 16.361 4.593-1.316V8.773z"></path><path fill="#467392" d="M61.03 0v8.771l16.542 5.662L61.03 0z"></path><path fill="#38575E" d="M61.03 28.866l16.542-14.432-16.543 4.741v9.691z"></path><path fill="#524655" d="M77.572 14.435L61.03 8.773v10.403l16.543-4.741z"></path></svg>